<mxfile host="app.diagrams.net" modified="2023-01-06T02:32:56.994Z" agent="5.0 (Macintosh; Intel Mac OS X 10_15_7) AppleWebKit/537.36 (KHTML, like Gecko) Chrome/108.0.0.0 Safari/537.36 Edg/108.0.1462.54" etag="F857Xh-sk-cTI-VsJqCx" version="20.7.4" type="github">
  <diagram id="prtHgNgQTEPvFCAcTncT" name="Page-1">
    <mxGraphModel dx="1397" dy="910" grid="1" gridSize="10" guides="1" tooltips="1" connect="1" arrows="1" fold="1" page="1" pageScale="1" pageWidth="827" pageHeight="1169" math="0" shadow="0">
      <root>
        <mxCell id="0" />
        <mxCell id="1" parent="0" />
        <mxCell id="dNxyNK7c78bLwvsdeMH5-19" value="Arrivals and Unloading at the Central Warehouse" style="swimlane;html=1;childLayout=stackLayout;resizeParent=1;resizeParentMax=0;horizontal=0;startSize=20;horizontalStack=0;" parent="1" vertex="1">
          <mxGeometry x="20" y="10" width="1860" height="570" as="geometry" />
        </mxCell>
        <mxCell id="dNxyNK7c78bLwvsdeMH5-20" value="Warehouse Staff" style="swimlane;html=1;startSize=20;horizontal=0;" parent="dNxyNK7c78bLwvsdeMH5-19" vertex="1">
          <mxGeometry x="20" width="1840" height="170" as="geometry" />
        </mxCell>
        <mxCell id="jybm4fPGBQml7Ri3tgQ--3" style="edgeStyle=orthogonalEdgeStyle;rounded=0;orthogonalLoop=1;jettySize=auto;html=1;" edge="1" parent="dNxyNK7c78bLwvsdeMH5-20" source="jybm4fPGBQml7Ri3tgQ--1" target="jybm4fPGBQml7Ri3tgQ--2">
          <mxGeometry relative="1" as="geometry" />
        </mxCell>
        <mxCell id="jybm4fPGBQml7Ri3tgQ--1" value="" style="points=[[0.145,0.145,0],[0.5,0,0],[0.855,0.145,0],[1,0.5,0],[0.855,0.855,0],[0.5,1,0],[0.145,0.855,0],[0,0.5,0]];shape=mxgraph.bpmn.event;html=1;verticalLabelPosition=bottom;labelBackgroundColor=#ffffff;verticalAlign=top;align=center;perimeter=ellipsePerimeter;outlineConnect=0;aspect=fixed;outline=standard;symbol=general;" vertex="1" parent="dNxyNK7c78bLwvsdeMH5-20">
          <mxGeometry x="40" y="55" width="50" height="50" as="geometry" />
        </mxCell>
        <mxCell id="jybm4fPGBQml7Ri3tgQ--2" value="arrange a time slot for arrival" style="points=[[0.25,0,0],[0.5,0,0],[0.75,0,0],[1,0.25,0],[1,0.5,0],[1,0.75,0],[0.75,1,0],[0.5,1,0],[0.25,1,0],[0,0.75,0],[0,0.5,0],[0,0.25,0]];shape=mxgraph.bpmn.task;whiteSpace=wrap;rectStyle=rounded;size=10;html=1;taskMarker=abstract;" vertex="1" parent="dNxyNK7c78bLwvsdeMH5-20">
          <mxGeometry x="130" y="40" width="120" height="80" as="geometry" />
        </mxCell>
        <mxCell id="jybm4fPGBQml7Ri3tgQ--14" value="allocate an unloading bay" style="points=[[0.25,0,0],[0.5,0,0],[0.75,0,0],[1,0.25,0],[1,0.5,0],[1,0.75,0],[0.75,1,0],[0.5,1,0],[0.25,1,0],[0,0.75,0],[0,0.5,0],[0,0.25,0]];shape=mxgraph.bpmn.task;whiteSpace=wrap;rectStyle=rounded;size=10;html=1;taskMarker=abstract;" vertex="1" parent="dNxyNK7c78bLwvsdeMH5-20">
          <mxGeometry x="420" y="40" width="120" height="80" as="geometry" />
        </mxCell>
        <mxCell id="jybm4fPGBQml7Ri3tgQ--28" value="check the bill of lading" style="points=[[0.25,0,0],[0.5,0,0],[0.75,0,0],[1,0.25,0],[1,0.5,0],[1,0.75,0],[0.75,1,0],[0.5,1,0],[0.25,1,0],[0,0.75,0],[0,0.5,0],[0,0.25,0]];shape=mxgraph.bpmn.task;whiteSpace=wrap;rectStyle=rounded;size=10;html=1;taskMarker=abstract;" vertex="1" parent="dNxyNK7c78bLwvsdeMH5-20">
          <mxGeometry x="730" y="40" width="120" height="80" as="geometry" />
        </mxCell>
        <mxCell id="jybm4fPGBQml7Ri3tgQ--38" style="edgeStyle=orthogonalEdgeStyle;rounded=0;orthogonalLoop=1;jettySize=auto;html=1;" edge="1" parent="dNxyNK7c78bLwvsdeMH5-20" source="jybm4fPGBQml7Ri3tgQ--30" target="jybm4fPGBQml7Ri3tgQ--37">
          <mxGeometry relative="1" as="geometry" />
        </mxCell>
        <mxCell id="jybm4fPGBQml7Ri3tgQ--50" value="yes" style="edgeLabel;html=1;align=center;verticalAlign=middle;resizable=0;points=[];" vertex="1" connectable="0" parent="jybm4fPGBQml7Ri3tgQ--38">
          <mxGeometry x="-0.033" y="2" relative="1" as="geometry">
            <mxPoint as="offset" />
          </mxGeometry>
        </mxCell>
        <mxCell id="jybm4fPGBQml7Ri3tgQ--30" value="If the goods match the expected delivery" style="points=[[0.25,0.25,0],[0.5,0,0],[0.75,0.25,0],[1,0.5,0],[0.75,0.75,0],[0.5,1,0],[0.25,0.75,0],[0,0.5,0]];shape=mxgraph.bpmn.gateway2;html=1;verticalLabelPosition=bottom;labelBackgroundColor=#ffffff;verticalAlign=top;align=center;perimeter=rhombusPerimeter;outlineConnect=0;outline=none;symbol=none;gwType=exclusive;" vertex="1" parent="dNxyNK7c78bLwvsdeMH5-20">
          <mxGeometry x="940" y="55" width="50" height="50" as="geometry" />
        </mxCell>
        <mxCell id="jybm4fPGBQml7Ri3tgQ--31" style="edgeStyle=orthogonalEdgeStyle;rounded=0;orthogonalLoop=1;jettySize=auto;html=1;" edge="1" parent="dNxyNK7c78bLwvsdeMH5-20" source="jybm4fPGBQml7Ri3tgQ--28" target="jybm4fPGBQml7Ri3tgQ--30">
          <mxGeometry relative="1" as="geometry" />
        </mxCell>
        <mxCell id="jybm4fPGBQml7Ri3tgQ--40" style="edgeStyle=orthogonalEdgeStyle;rounded=0;orthogonalLoop=1;jettySize=auto;html=1;" edge="1" parent="dNxyNK7c78bLwvsdeMH5-20" source="jybm4fPGBQml7Ri3tgQ--37" target="jybm4fPGBQml7Ri3tgQ--39">
          <mxGeometry relative="1" as="geometry" />
        </mxCell>
        <mxCell id="jybm4fPGBQml7Ri3tgQ--37" value="the trailer or container is cleared for unloading" style="points=[[0.25,0,0],[0.5,0,0],[0.75,0,0],[1,0.25,0],[1,0.5,0],[1,0.75,0],[0.75,1,0],[0.5,1,0],[0.25,1,0],[0,0.75,0],[0,0.5,0],[0,0.25,0]];shape=mxgraph.bpmn.task;whiteSpace=wrap;rectStyle=rounded;size=10;html=1;taskMarker=abstract;" vertex="1" parent="dNxyNK7c78bLwvsdeMH5-20">
          <mxGeometry x="1081" y="40" width="120" height="80" as="geometry" />
        </mxCell>
        <mxCell id="jybm4fPGBQml7Ri3tgQ--39" value="Goods are unloaded with the assistance on material handling equipment" style="points=[[0.25,0,0],[0.5,0,0],[0.75,0,0],[1,0.25,0],[1,0.5,0],[1,0.75,0],[0.75,1,0],[0.5,1,0],[0.25,1,0],[0,0.75,0],[0,0.5,0],[0,0.25,0]];shape=mxgraph.bpmn.task;whiteSpace=wrap;rectStyle=rounded;size=10;html=1;taskMarker=abstract;" vertex="1" parent="dNxyNK7c78bLwvsdeMH5-20">
          <mxGeometry x="1260" y="40" width="120" height="80" as="geometry" />
        </mxCell>
        <mxCell id="jybm4fPGBQml7Ri3tgQ--86" style="edgeStyle=orthogonalEdgeStyle;rounded=0;orthogonalLoop=1;jettySize=auto;html=1;" edge="1" parent="dNxyNK7c78bLwvsdeMH5-20" source="jybm4fPGBQml7Ri3tgQ--41" target="jybm4fPGBQml7Ri3tgQ--85">
          <mxGeometry relative="1" as="geometry" />
        </mxCell>
        <mxCell id="jybm4fPGBQml7Ri3tgQ--41" value="Goods are&amp;nbsp;placed in an appropriate location within the warehouse" style="points=[[0.25,0,0],[0.5,0,0],[0.75,0,0],[1,0.25,0],[1,0.5,0],[1,0.75,0],[0.75,1,0],[0.5,1,0],[0.25,1,0],[0,0.75,0],[0,0.5,0],[0,0.25,0]];shape=mxgraph.bpmn.task;whiteSpace=wrap;rectStyle=rounded;size=10;html=1;taskMarker=abstract;" vertex="1" parent="dNxyNK7c78bLwvsdeMH5-20">
          <mxGeometry x="1440" y="40" width="120" height="80" as="geometry" />
        </mxCell>
        <mxCell id="jybm4fPGBQml7Ri3tgQ--42" style="edgeStyle=orthogonalEdgeStyle;rounded=0;orthogonalLoop=1;jettySize=auto;html=1;" edge="1" parent="dNxyNK7c78bLwvsdeMH5-20" source="jybm4fPGBQml7Ri3tgQ--39" target="jybm4fPGBQml7Ri3tgQ--41">
          <mxGeometry relative="1" as="geometry" />
        </mxCell>
        <mxCell id="jybm4fPGBQml7Ri3tgQ--85" value="Data updated in WMS and TMS" style="shape=datastore;whiteSpace=wrap;html=1;labelPosition=center;verticalLabelPosition=bottom;align=center;verticalAlign=top;" vertex="1" parent="dNxyNK7c78bLwvsdeMH5-20">
          <mxGeometry x="1620" y="30" width="90" height="100" as="geometry" />
        </mxCell>
        <mxCell id="jybm4fPGBQml7Ri3tgQ--7" style="edgeStyle=orthogonalEdgeStyle;rounded=0;orthogonalLoop=1;jettySize=auto;html=1;" edge="1" parent="dNxyNK7c78bLwvsdeMH5-19" source="jybm4fPGBQml7Ri3tgQ--2" target="jybm4fPGBQml7Ri3tgQ--6">
          <mxGeometry relative="1" as="geometry" />
        </mxCell>
        <mxCell id="jybm4fPGBQml7Ri3tgQ--15" style="edgeStyle=orthogonalEdgeStyle;rounded=0;orthogonalLoop=1;jettySize=auto;html=1;" edge="1" parent="dNxyNK7c78bLwvsdeMH5-19" source="jybm4fPGBQml7Ri3tgQ--11" target="jybm4fPGBQml7Ri3tgQ--14">
          <mxGeometry relative="1" as="geometry" />
        </mxCell>
        <mxCell id="jybm4fPGBQml7Ri3tgQ--17" style="edgeStyle=orthogonalEdgeStyle;rounded=0;orthogonalLoop=1;jettySize=auto;html=1;entryX=0.5;entryY=0;entryDx=0;entryDy=0;entryPerimeter=0;" edge="1" parent="dNxyNK7c78bLwvsdeMH5-19" source="jybm4fPGBQml7Ri3tgQ--14" target="jybm4fPGBQml7Ri3tgQ--21">
          <mxGeometry relative="1" as="geometry" />
        </mxCell>
        <mxCell id="jybm4fPGBQml7Ri3tgQ--29" style="edgeStyle=orthogonalEdgeStyle;rounded=0;orthogonalLoop=1;jettySize=auto;html=1;" edge="1" parent="dNxyNK7c78bLwvsdeMH5-19" source="jybm4fPGBQml7Ri3tgQ--16" target="jybm4fPGBQml7Ri3tgQ--28">
          <mxGeometry relative="1" as="geometry" />
        </mxCell>
        <mxCell id="jybm4fPGBQml7Ri3tgQ--52" value="no" style="edgeStyle=orthogonalEdgeStyle;rounded=0;orthogonalLoop=1;jettySize=auto;html=1;entryX=0.5;entryY=0;entryDx=0;entryDy=0;entryPerimeter=0;" edge="1" parent="dNxyNK7c78bLwvsdeMH5-19" source="jybm4fPGBQml7Ri3tgQ--30" target="jybm4fPGBQml7Ri3tgQ--51">
          <mxGeometry relative="1" as="geometry" />
        </mxCell>
        <mxCell id="jybm4fPGBQml7Ri3tgQ--73" style="edgeStyle=orthogonalEdgeStyle;rounded=0;orthogonalLoop=1;jettySize=auto;html=1;entryX=0.5;entryY=0;entryDx=0;entryDy=0;entryPerimeter=0;exitX=1;exitY=0.5;exitDx=0;exitDy=0;exitPerimeter=0;" edge="1" parent="dNxyNK7c78bLwvsdeMH5-19" source="jybm4fPGBQml7Ri3tgQ--62" target="jybm4fPGBQml7Ri3tgQ--30">
          <mxGeometry relative="1" as="geometry">
            <Array as="points">
              <mxPoint x="1250" y="315" />
              <mxPoint x="1250" y="30" />
              <mxPoint x="985" y="30" />
            </Array>
          </mxGeometry>
        </mxCell>
        <mxCell id="jybm4fPGBQml7Ri3tgQ--74" style="edgeStyle=orthogonalEdgeStyle;rounded=0;orthogonalLoop=1;jettySize=auto;html=1;entryX=0.5;entryY=0;entryDx=0;entryDy=0;entryPerimeter=0;exitX=1;exitY=0.5;exitDx=0;exitDy=0;exitPerimeter=0;" edge="1" parent="dNxyNK7c78bLwvsdeMH5-19" source="jybm4fPGBQml7Ri3tgQ--65" target="jybm4fPGBQml7Ri3tgQ--30">
          <mxGeometry relative="1" as="geometry">
            <mxPoint x="1160" y="10" as="targetPoint" />
            <Array as="points">
              <mxPoint x="1410" y="460" />
              <mxPoint x="1410" y="20" />
              <mxPoint x="985" y="20" />
            </Array>
          </mxGeometry>
        </mxCell>
        <mxCell id="jybm4fPGBQml7Ri3tgQ--76" style="edgeStyle=orthogonalEdgeStyle;rounded=0;orthogonalLoop=1;jettySize=auto;html=1;entryX=0;entryY=0.5;entryDx=0;entryDy=0;entryPerimeter=0;exitX=0.5;exitY=1;exitDx=0;exitDy=0;exitPerimeter=0;" edge="1" parent="dNxyNK7c78bLwvsdeMH5-19" source="jybm4fPGBQml7Ri3tgQ--37" target="jybm4fPGBQml7Ri3tgQ--75">
          <mxGeometry relative="1" as="geometry">
            <Array as="points">
              <mxPoint x="1161" y="150" />
              <mxPoint x="1450" y="150" />
              <mxPoint x="1450" y="318" />
            </Array>
          </mxGeometry>
        </mxCell>
        <mxCell id="jybm4fPGBQml7Ri3tgQ--84" style="edgeStyle=orthogonalEdgeStyle;rounded=0;orthogonalLoop=1;jettySize=auto;html=1;" edge="1" parent="dNxyNK7c78bLwvsdeMH5-19" source="jybm4fPGBQml7Ri3tgQ--2" target="jybm4fPGBQml7Ri3tgQ--78">
          <mxGeometry relative="1" as="geometry">
            <Array as="points">
              <mxPoint x="210" y="10" />
              <mxPoint x="1830" y="10" />
              <mxPoint x="1830" y="460" />
              <mxPoint x="1650" y="460" />
            </Array>
          </mxGeometry>
        </mxCell>
        <mxCell id="dNxyNK7c78bLwvsdeMH5-21" value="Logistics Service Provider or&amp;nbsp;Transportation Staff" style="swimlane;html=1;startSize=20;horizontal=0;" parent="dNxyNK7c78bLwvsdeMH5-19" vertex="1">
          <mxGeometry x="20" y="170" width="1840" height="400" as="geometry" />
        </mxCell>
        <mxCell id="jybm4fPGBQml7Ri3tgQ--10" style="edgeStyle=orthogonalEdgeStyle;rounded=0;orthogonalLoop=1;jettySize=auto;html=1;" edge="1" parent="dNxyNK7c78bLwvsdeMH5-21" source="jybm4fPGBQml7Ri3tgQ--6" target="jybm4fPGBQml7Ri3tgQ--9">
          <mxGeometry relative="1" as="geometry" />
        </mxCell>
        <mxCell id="jybm4fPGBQml7Ri3tgQ--6" value="check in at the gate" style="points=[[0.25,0,0],[0.5,0,0],[0.75,0,0],[1,0.25,0],[1,0.5,0],[1,0.75,0],[0.75,1,0],[0.5,1,0],[0.25,1,0],[0,0.75,0],[0,0.5,0],[0,0.25,0]];shape=mxgraph.bpmn.task;whiteSpace=wrap;rectStyle=rounded;size=10;html=1;taskMarker=abstract;" vertex="1" parent="dNxyNK7c78bLwvsdeMH5-21">
          <mxGeometry x="130" y="105" width="120" height="80" as="geometry" />
        </mxCell>
        <mxCell id="jybm4fPGBQml7Ri3tgQ--13" style="edgeStyle=orthogonalEdgeStyle;rounded=0;orthogonalLoop=1;jettySize=auto;html=1;" edge="1" parent="dNxyNK7c78bLwvsdeMH5-21" source="jybm4fPGBQml7Ri3tgQ--9" target="jybm4fPGBQml7Ri3tgQ--11">
          <mxGeometry relative="1" as="geometry" />
        </mxCell>
        <mxCell id="jybm4fPGBQml7Ri3tgQ--18" value="yes" style="edgeLabel;html=1;align=center;verticalAlign=middle;resizable=0;points=[];" vertex="1" connectable="0" parent="jybm4fPGBQml7Ri3tgQ--13">
          <mxGeometry y="3" relative="1" as="geometry">
            <mxPoint y="1" as="offset" />
          </mxGeometry>
        </mxCell>
        <mxCell id="jybm4fPGBQml7Ri3tgQ--20" value="no" style="edgeStyle=orthogonalEdgeStyle;rounded=0;orthogonalLoop=1;jettySize=auto;html=1;entryX=0.5;entryY=0;entryDx=0;entryDy=0;entryPerimeter=0;" edge="1" parent="dNxyNK7c78bLwvsdeMH5-21" source="jybm4fPGBQml7Ri3tgQ--9" target="jybm4fPGBQml7Ri3tgQ--34">
          <mxGeometry relative="1" as="geometry">
            <mxPoint x="350" y="240" as="targetPoint" />
          </mxGeometry>
        </mxCell>
        <mxCell id="jybm4fPGBQml7Ri3tgQ--9" value="arrival&amp;nbsp;expected?" style="points=[[0.25,0.25,0],[0.5,0,0],[0.75,0.25,0],[1,0.5,0],[0.75,0.75,0],[0.5,1,0],[0.25,0.75,0],[0,0.5,0]];shape=mxgraph.bpmn.gateway2;html=1;verticalLabelPosition=bottom;labelBackgroundColor=#ffffff;verticalAlign=top;align=center;perimeter=rhombusPerimeter;outlineConnect=0;outline=none;symbol=none;gwType=exclusive;" vertex="1" parent="dNxyNK7c78bLwvsdeMH5-21">
          <mxGeometry x="310" y="120" width="50" height="50" as="geometry" />
        </mxCell>
        <mxCell id="jybm4fPGBQml7Ri3tgQ--11" value="admitted to enter" style="points=[[0.25,0,0],[0.5,0,0],[0.75,0,0],[1,0.25,0],[1,0.5,0],[1,0.75,0],[0.75,1,0],[0.5,1,0],[0.25,1,0],[0,0.75,0],[0,0.5,0],[0,0.25,0]];shape=mxgraph.bpmn.task;whiteSpace=wrap;rectStyle=rounded;size=10;html=1;taskMarker=abstract;" vertex="1" parent="dNxyNK7c78bLwvsdeMH5-21">
          <mxGeometry x="420" y="105" width="120" height="80" as="geometry" />
        </mxCell>
        <mxCell id="jybm4fPGBQml7Ri3tgQ--24" style="edgeStyle=orthogonalEdgeStyle;rounded=0;orthogonalLoop=1;jettySize=auto;html=1;" edge="1" parent="dNxyNK7c78bLwvsdeMH5-21" source="jybm4fPGBQml7Ri3tgQ--21" target="jybm4fPGBQml7Ri3tgQ--23">
          <mxGeometry relative="1" as="geometry" />
        </mxCell>
        <mxCell id="jybm4fPGBQml7Ri3tgQ--25" value="no" style="edgeLabel;html=1;align=center;verticalAlign=middle;resizable=0;points=[];" vertex="1" connectable="0" parent="jybm4fPGBQml7Ri3tgQ--24">
          <mxGeometry x="-0.0778" y="1" relative="1" as="geometry">
            <mxPoint y="1" as="offset" />
          </mxGeometry>
        </mxCell>
        <mxCell id="jybm4fPGBQml7Ri3tgQ--21" value="unloading now?" style="points=[[0.25,0.25,0],[0.5,0,0],[0.75,0.25,0],[1,0.5,0],[0.75,0.75,0],[0.5,1,0],[0.25,0.75,0],[0,0.5,0]];shape=mxgraph.bpmn.gateway2;html=1;verticalLabelPosition=bottom;labelBackgroundColor=#ffffff;verticalAlign=top;align=center;perimeter=rhombusPerimeter;outlineConnect=0;outline=none;symbol=none;gwType=exclusive;" vertex="1" parent="dNxyNK7c78bLwvsdeMH5-21">
          <mxGeometry x="600" y="120" width="50" height="50" as="geometry" />
        </mxCell>
        <mxCell id="jybm4fPGBQml7Ri3tgQ--27" style="edgeStyle=orthogonalEdgeStyle;rounded=0;orthogonalLoop=1;jettySize=auto;html=1;" edge="1" parent="dNxyNK7c78bLwvsdeMH5-21" source="jybm4fPGBQml7Ri3tgQ--23" target="jybm4fPGBQml7Ri3tgQ--26">
          <mxGeometry relative="1" as="geometry" />
        </mxCell>
        <mxCell id="jybm4fPGBQml7Ri3tgQ--23" value="be&amp;nbsp;directed to the yard where facilities are available to lift the container from the flat-bed trailer" style="points=[[0.25,0,0],[0.5,0,0],[0.75,0,0],[1,0.25,0],[1,0.5,0],[1,0.75,0],[0.75,1,0],[0.5,1,0],[0.25,1,0],[0,0.75,0],[0,0.5,0],[0,0.25,0]];shape=mxgraph.bpmn.task;whiteSpace=wrap;rectStyle=rounded;size=10;html=1;taskMarker=abstract;" vertex="1" parent="dNxyNK7c78bLwvsdeMH5-21">
          <mxGeometry x="565" y="260" width="120" height="80" as="geometry" />
        </mxCell>
        <mxCell id="jybm4fPGBQml7Ri3tgQ--47" style="edgeStyle=orthogonalEdgeStyle;rounded=0;orthogonalLoop=1;jettySize=auto;html=1;entryX=0;entryY=0.5;entryDx=0;entryDy=0;entryPerimeter=0;" edge="1" parent="dNxyNK7c78bLwvsdeMH5-21" source="jybm4fPGBQml7Ri3tgQ--26" target="jybm4fPGBQml7Ri3tgQ--46">
          <mxGeometry relative="1" as="geometry" />
        </mxCell>
        <mxCell id="jybm4fPGBQml7Ri3tgQ--26" value="container is then placed in the yard for later unloading" style="points=[[0.25,0,0],[0.5,0,0],[0.75,0,0],[1,0.25,0],[1,0.5,0],[1,0.75,0],[0.75,1,0],[0.5,1,0],[0.25,1,0],[0,0.75,0],[0,0.5,0],[0,0.25,0]];shape=mxgraph.bpmn.task;whiteSpace=wrap;rectStyle=rounded;size=10;html=1;taskMarker=abstract;" vertex="1" parent="dNxyNK7c78bLwvsdeMH5-21">
          <mxGeometry x="730" y="260" width="120" height="80" as="geometry" />
        </mxCell>
        <mxCell id="jybm4fPGBQml7Ri3tgQ--16" value="informed the allocated bay and go to the bay" style="points=[[0.25,0,0],[0.5,0,0],[0.75,0,0],[1,0.25,0],[1,0.5,0],[1,0.75,0],[0.75,1,0],[0.5,1,0],[0.25,1,0],[0,0.75,0],[0,0.5,0],[0,0.25,0]];shape=mxgraph.bpmn.task;whiteSpace=wrap;rectStyle=rounded;size=10;html=1;taskMarker=abstract;" vertex="1" parent="dNxyNK7c78bLwvsdeMH5-21">
          <mxGeometry x="730" y="105" width="120" height="80" as="geometry" />
        </mxCell>
        <mxCell id="jybm4fPGBQml7Ri3tgQ--22" value="yes" style="edgeStyle=orthogonalEdgeStyle;rounded=0;orthogonalLoop=1;jettySize=auto;html=1;" edge="1" parent="dNxyNK7c78bLwvsdeMH5-21" source="jybm4fPGBQml7Ri3tgQ--21" target="jybm4fPGBQml7Ri3tgQ--16">
          <mxGeometry relative="1" as="geometry" />
        </mxCell>
        <mxCell id="jybm4fPGBQml7Ri3tgQ--36" style="edgeStyle=orthogonalEdgeStyle;rounded=0;orthogonalLoop=1;jettySize=auto;html=1;entryX=0;entryY=0.5;entryDx=0;entryDy=0;entryPerimeter=0;" edge="1" parent="dNxyNK7c78bLwvsdeMH5-21" source="jybm4fPGBQml7Ri3tgQ--34" target="jybm4fPGBQml7Ri3tgQ--35">
          <mxGeometry relative="1" as="geometry" />
        </mxCell>
        <mxCell id="jybm4fPGBQml7Ri3tgQ--34" value="leave" style="points=[[0.25,0,0],[0.5,0,0],[0.75,0,0],[1,0.25,0],[1,0.5,0],[1,0.75,0],[0.75,1,0],[0.5,1,0],[0.25,1,0],[0,0.75,0],[0,0.5,0],[0,0.25,0]];shape=mxgraph.bpmn.task;whiteSpace=wrap;rectStyle=rounded;size=10;html=1;taskMarker=abstract;" vertex="1" parent="dNxyNK7c78bLwvsdeMH5-21">
          <mxGeometry x="275" y="260" width="120" height="80" as="geometry" />
        </mxCell>
        <mxCell id="jybm4fPGBQml7Ri3tgQ--35" value="" style="points=[[0.145,0.145,0],[0.5,0,0],[0.855,0.145,0],[1,0.5,0],[0.855,0.855,0],[0.5,1,0],[0.145,0.855,0],[0,0.5,0]];shape=mxgraph.bpmn.event;html=1;verticalLabelPosition=bottom;labelBackgroundColor=#ffffff;verticalAlign=top;align=center;perimeter=ellipsePerimeter;outlineConnect=0;aspect=fixed;outline=end;symbol=terminate;" vertex="1" parent="dNxyNK7c78bLwvsdeMH5-21">
          <mxGeometry x="455" y="275" width="50" height="50" as="geometry" />
        </mxCell>
        <mxCell id="jybm4fPGBQml7Ri3tgQ--55" value="yes" style="edgeStyle=orthogonalEdgeStyle;rounded=0;orthogonalLoop=1;jettySize=auto;html=1;exitX=0.5;exitY=0;exitDx=0;exitDy=0;exitPerimeter=0;entryX=0;entryY=0.5;entryDx=0;entryDy=0;entryPerimeter=0;" edge="1" parent="dNxyNK7c78bLwvsdeMH5-21" source="jybm4fPGBQml7Ri3tgQ--46" target="jybm4fPGBQml7Ri3tgQ--62">
          <mxGeometry relative="1" as="geometry">
            <mxPoint x="1040" y="145" as="targetPoint" />
          </mxGeometry>
        </mxCell>
        <mxCell id="jybm4fPGBQml7Ri3tgQ--56" style="edgeStyle=orthogonalEdgeStyle;rounded=0;orthogonalLoop=1;jettySize=auto;html=1;entryX=0;entryY=0.5;entryDx=0;entryDy=0;entryPerimeter=0;exitX=0.5;exitY=1;exitDx=0;exitDy=0;exitPerimeter=0;" edge="1" parent="dNxyNK7c78bLwvsdeMH5-21" source="jybm4fPGBQml7Ri3tgQ--46" target="jybm4fPGBQml7Ri3tgQ--67">
          <mxGeometry relative="1" as="geometry">
            <mxPoint x="1005" y="300" as="targetPoint" />
          </mxGeometry>
        </mxCell>
        <mxCell id="jybm4fPGBQml7Ri3tgQ--59" value="no" style="edgeLabel;html=1;align=center;verticalAlign=middle;resizable=0;points=[];" vertex="1" connectable="0" parent="jybm4fPGBQml7Ri3tgQ--56">
          <mxGeometry x="0.3059" y="-2" relative="1" as="geometry">
            <mxPoint as="offset" />
          </mxGeometry>
        </mxCell>
        <mxCell id="jybm4fPGBQml7Ri3tgQ--46" value="waiting in yard?" style="points=[[0.25,0.25,0],[0.5,0,0],[0.75,0.25,0],[1,0.5,0],[0.75,0.75,0],[0.5,1,0],[0.25,0.75,0],[0,0.5,0]];shape=mxgraph.bpmn.gateway2;html=1;verticalLabelPosition=bottom;labelBackgroundColor=#ffffff;verticalAlign=top;align=center;perimeter=rhombusPerimeter;outlineConnect=0;outline=none;symbol=none;gwType=exclusive;" vertex="1" parent="dNxyNK7c78bLwvsdeMH5-21">
          <mxGeometry x="920" y="175" width="50" height="50" as="geometry" />
        </mxCell>
        <mxCell id="jybm4fPGBQml7Ri3tgQ--66" style="edgeStyle=orthogonalEdgeStyle;rounded=0;orthogonalLoop=1;jettySize=auto;html=1;exitX=1;exitY=0.5;exitDx=0;exitDy=0;exitPerimeter=0;" edge="1" parent="dNxyNK7c78bLwvsdeMH5-21" source="jybm4fPGBQml7Ri3tgQ--68" target="jybm4fPGBQml7Ri3tgQ--65">
          <mxGeometry relative="1" as="geometry">
            <mxPoint x="1260" y="285" as="sourcePoint" />
            <Array as="points">
              <mxPoint x="1336" y="235" />
            </Array>
          </mxGeometry>
        </mxCell>
        <mxCell id="jybm4fPGBQml7Ri3tgQ--54" style="edgeStyle=orthogonalEdgeStyle;rounded=0;orthogonalLoop=1;jettySize=auto;html=1;" edge="1" parent="dNxyNK7c78bLwvsdeMH5-21" source="jybm4fPGBQml7Ri3tgQ--51" target="jybm4fPGBQml7Ri3tgQ--53">
          <mxGeometry relative="1" as="geometry" />
        </mxCell>
        <mxCell id="jybm4fPGBQml7Ri3tgQ--51" value="leave" style="points=[[0.25,0,0],[0.5,0,0],[0.75,0,0],[1,0.25,0],[1,0.5,0],[1,0.75,0],[0.75,1,0],[0.5,1,0],[0.25,1,0],[0,0.75,0],[0,0.5,0],[0,0.25,0]];shape=mxgraph.bpmn.task;whiteSpace=wrap;rectStyle=rounded;size=10;html=1;taskMarker=abstract;" vertex="1" parent="dNxyNK7c78bLwvsdeMH5-21">
          <mxGeometry x="905" y="25" width="120" height="80" as="geometry" />
        </mxCell>
        <mxCell id="jybm4fPGBQml7Ri3tgQ--53" value="" style="points=[[0.145,0.145,0],[0.5,0,0],[0.855,0.145,0],[1,0.5,0],[0.855,0.855,0],[0.5,1,0],[0.145,0.855,0],[0,0.5,0]];shape=mxgraph.bpmn.event;html=1;verticalLabelPosition=bottom;labelBackgroundColor=#ffffff;verticalAlign=top;align=center;perimeter=ellipsePerimeter;outlineConnect=0;aspect=fixed;outline=end;symbol=terminate;" vertex="1" parent="dNxyNK7c78bLwvsdeMH5-21">
          <mxGeometry x="1075" y="40" width="50" height="50" as="geometry" />
        </mxCell>
        <mxCell id="jybm4fPGBQml7Ri3tgQ--62" value="wait in yard" style="points=[[0.145,0.145,0],[0.5,0,0],[0.855,0.145,0],[1,0.5,0],[0.855,0.855,0],[0.5,1,0],[0.145,0.855,0],[0,0.5,0]];shape=mxgraph.bpmn.event;html=1;verticalLabelPosition=bottom;labelBackgroundColor=#ffffff;verticalAlign=top;align=center;perimeter=ellipsePerimeter;outlineConnect=0;aspect=fixed;outline=standard;symbol=timer;" vertex="1" parent="dNxyNK7c78bLwvsdeMH5-21">
          <mxGeometry x="1040" y="120" width="50" height="50" as="geometry" />
        </mxCell>
        <mxCell id="jybm4fPGBQml7Ri3tgQ--65" value="waiting outside" style="points=[[0.145,0.145,0],[0.5,0,0],[0.855,0.145,0],[1,0.5,0],[0.855,0.855,0],[0.5,1,0],[0.145,0.855,0],[0,0.5,0]];shape=mxgraph.bpmn.event;html=1;verticalLabelPosition=bottom;labelBackgroundColor=#ffffff;verticalAlign=top;align=center;perimeter=ellipsePerimeter;outlineConnect=0;aspect=fixed;outline=standard;symbol=timer;" vertex="1" parent="dNxyNK7c78bLwvsdeMH5-21">
          <mxGeometry x="1311" y="275" width="50" height="50" as="geometry" />
        </mxCell>
        <mxCell id="jybm4fPGBQml7Ri3tgQ--70" style="edgeStyle=orthogonalEdgeStyle;rounded=0;orthogonalLoop=1;jettySize=auto;html=1;exitX=0.5;exitY=0;exitDx=0;exitDy=0;exitPerimeter=0;" edge="1" parent="dNxyNK7c78bLwvsdeMH5-21" source="jybm4fPGBQml7Ri3tgQ--67" target="jybm4fPGBQml7Ri3tgQ--68">
          <mxGeometry relative="1" as="geometry" />
        </mxCell>
        <mxCell id="jybm4fPGBQml7Ri3tgQ--71" style="edgeStyle=orthogonalEdgeStyle;rounded=0;orthogonalLoop=1;jettySize=auto;html=1;exitX=0.5;exitY=1;exitDx=0;exitDy=0;exitPerimeter=0;" edge="1" parent="dNxyNK7c78bLwvsdeMH5-21" source="jybm4fPGBQml7Ri3tgQ--67" target="jybm4fPGBQml7Ri3tgQ--69">
          <mxGeometry relative="1" as="geometry" />
        </mxCell>
        <mxCell id="jybm4fPGBQml7Ri3tgQ--67" value="" style="points=[[0.25,0.25,0],[0.5,0,0],[0.75,0.25,0],[1,0.5,0],[0.75,0.75,0],[0.5,1,0],[0.25,0.75,0],[0,0.5,0]];shape=mxgraph.bpmn.gateway2;html=1;verticalLabelPosition=bottom;labelBackgroundColor=#ffffff;verticalAlign=top;align=center;perimeter=rhombusPerimeter;outlineConnect=0;outline=end;symbol=general;" vertex="1" parent="dNxyNK7c78bLwvsdeMH5-21">
          <mxGeometry x="1040" y="275" width="50" height="50" as="geometry" />
        </mxCell>
        <mxCell id="jybm4fPGBQml7Ri3tgQ--68" value="leave" style="points=[[0.25,0,0],[0.5,0,0],[0.75,0,0],[1,0.25,0],[1,0.5,0],[1,0.75,0],[0.75,1,0],[0.5,1,0],[0.25,1,0],[0,0.75,0],[0,0.5,0],[0,0.25,0]];shape=mxgraph.bpmn.task;whiteSpace=wrap;rectStyle=rounded;size=10;html=1;taskMarker=abstract;" vertex="1" parent="dNxyNK7c78bLwvsdeMH5-21">
          <mxGeometry x="1120" y="195" width="120" height="80" as="geometry" />
        </mxCell>
        <mxCell id="jybm4fPGBQml7Ri3tgQ--72" style="edgeStyle=orthogonalEdgeStyle;rounded=0;orthogonalLoop=1;jettySize=auto;html=1;entryX=0.5;entryY=1;entryDx=0;entryDy=0;entryPerimeter=0;" edge="1" parent="dNxyNK7c78bLwvsdeMH5-21" source="jybm4fPGBQml7Ri3tgQ--69" target="jybm4fPGBQml7Ri3tgQ--65">
          <mxGeometry relative="1" as="geometry" />
        </mxCell>
        <mxCell id="jybm4fPGBQml7Ri3tgQ--69" value="take away an empty container" style="points=[[0.25,0,0],[0.5,0,0],[0.75,0,0],[1,0.25,0],[1,0.5,0],[1,0.75,0],[0.75,1,0],[0.5,1,0],[0.25,1,0],[0,0.75,0],[0,0.5,0],[0,0.25,0]];shape=mxgraph.bpmn.task;whiteSpace=wrap;rectStyle=rounded;size=10;html=1;taskMarker=abstract;" vertex="1" parent="dNxyNK7c78bLwvsdeMH5-21">
          <mxGeometry x="1120" y="310" width="120" height="80" as="geometry" />
        </mxCell>
        <mxCell id="jybm4fPGBQml7Ri3tgQ--79" style="edgeStyle=orthogonalEdgeStyle;rounded=0;orthogonalLoop=1;jettySize=auto;html=1;entryX=0;entryY=0.5;entryDx=0;entryDy=0;entryPerimeter=0;exitX=0.5;exitY=1;exitDx=0;exitDy=0;exitPerimeter=0;" edge="1" parent="dNxyNK7c78bLwvsdeMH5-21" source="jybm4fPGBQml7Ri3tgQ--75" target="jybm4fPGBQml7Ri3tgQ--78">
          <mxGeometry relative="1" as="geometry" />
        </mxCell>
        <mxCell id="jybm4fPGBQml7Ri3tgQ--80" style="edgeStyle=orthogonalEdgeStyle;rounded=0;orthogonalLoop=1;jettySize=auto;html=1;exitX=0.5;exitY=0;exitDx=0;exitDy=0;exitPerimeter=0;" edge="1" parent="dNxyNK7c78bLwvsdeMH5-21" source="jybm4fPGBQml7Ri3tgQ--75" target="jybm4fPGBQml7Ri3tgQ--77">
          <mxGeometry relative="1" as="geometry" />
        </mxCell>
        <mxCell id="jybm4fPGBQml7Ri3tgQ--75" value="" style="points=[[0.25,0.25,0],[0.5,0,0],[0.75,0.25,0],[1,0.5,0],[0.75,0.75,0],[0.5,1,0],[0.25,0.75,0],[0,0.5,0]];shape=mxgraph.bpmn.gateway2;html=1;verticalLabelPosition=bottom;labelBackgroundColor=#ffffff;verticalAlign=top;align=center;perimeter=rhombusPerimeter;outlineConnect=0;outline=end;symbol=general;" vertex="1" parent="dNxyNK7c78bLwvsdeMH5-21">
          <mxGeometry x="1475" y="122.5" width="50" height="50" as="geometry" />
        </mxCell>
        <mxCell id="jybm4fPGBQml7Ri3tgQ--77" value="leave" style="points=[[0.25,0,0],[0.5,0,0],[0.75,0,0],[1,0.25,0],[1,0.5,0],[1,0.75,0],[0.75,1,0],[0.5,1,0],[0.25,1,0],[0,0.75,0],[0,0.5,0],[0,0.25,0]];shape=mxgraph.bpmn.task;whiteSpace=wrap;rectStyle=rounded;size=10;html=1;taskMarker=abstract;" vertex="1" parent="dNxyNK7c78bLwvsdeMH5-21">
          <mxGeometry x="1570" y="42.5" width="120" height="80" as="geometry" />
        </mxCell>
        <mxCell id="jybm4fPGBQml7Ri3tgQ--78" value="take away an empty container" style="points=[[0.25,0,0],[0.5,0,0],[0.75,0,0],[1,0.25,0],[1,0.5,0],[1,0.75,0],[0.75,1,0],[0.5,1,0],[0.25,1,0],[0,0.75,0],[0,0.5,0],[0,0.25,0]];shape=mxgraph.bpmn.task;whiteSpace=wrap;rectStyle=rounded;size=10;html=1;taskMarker=abstract;" vertex="1" parent="dNxyNK7c78bLwvsdeMH5-21">
          <mxGeometry x="1570" y="167.5" width="120" height="80" as="geometry" />
        </mxCell>
        <mxCell id="jybm4fPGBQml7Ri3tgQ--81" value="" style="points=[[0.145,0.145,0],[0.5,0,0],[0.855,0.145,0],[1,0.5,0],[0.855,0.855,0],[0.5,1,0],[0.145,0.855,0],[0,0.5,0]];shape=mxgraph.bpmn.event;html=1;verticalLabelPosition=bottom;labelBackgroundColor=#ffffff;verticalAlign=top;align=center;perimeter=ellipsePerimeter;outlineConnect=0;aspect=fixed;outline=end;symbol=terminate2;" vertex="1" parent="dNxyNK7c78bLwvsdeMH5-21">
          <mxGeometry x="1750" y="122.5" width="50" height="50" as="geometry" />
        </mxCell>
        <mxCell id="jybm4fPGBQml7Ri3tgQ--82" style="edgeStyle=orthogonalEdgeStyle;rounded=0;orthogonalLoop=1;jettySize=auto;html=1;entryX=0.5;entryY=0;entryDx=0;entryDy=0;entryPerimeter=0;" edge="1" parent="dNxyNK7c78bLwvsdeMH5-21" source="jybm4fPGBQml7Ri3tgQ--77" target="jybm4fPGBQml7Ri3tgQ--81">
          <mxGeometry relative="1" as="geometry" />
        </mxCell>
        <mxCell id="jybm4fPGBQml7Ri3tgQ--83" style="edgeStyle=orthogonalEdgeStyle;rounded=0;orthogonalLoop=1;jettySize=auto;html=1;entryX=0.5;entryY=1;entryDx=0;entryDy=0;entryPerimeter=0;" edge="1" parent="dNxyNK7c78bLwvsdeMH5-21" source="jybm4fPGBQml7Ri3tgQ--78" target="jybm4fPGBQml7Ri3tgQ--81">
          <mxGeometry relative="1" as="geometry" />
        </mxCell>
      </root>
    </mxGraphModel>
  </diagram>
</mxfile>
